<svg xmlns="http://www.w3.org/2000/svg" width="161" height="161" fill="none" viewBox="0 0 161 161">
  <path fill="#149FA6" d="m80.624.312 69.282 40v80l-69.282 40-69.282-40v-80l69.282-40Z"/>
  <path fill="#149FA6" stroke="#fff" stroke-width="3" d="m54.316 65.178 26.212-15.134 26.213 15.134v30.268L80.528 110.58 54.316 95.446V65.178Z"/>
  <path fill="#149FA6" stroke="#fff" stroke-width="3" d="m92.896 57.288-12.439 6.989-12.272-7.278.166-14.267 12.44-6.99 12.271 7.279-.166 14.267Z"/>
  <path stroke="#fff" stroke-width="3" d="m80.42 64.839.177-15.102L93.57 42.64m-12.937 7.062-12.981-7.507"/>
  <path fill="#149FA6" stroke="#fff" stroke-width="3" d="m118.508 102.945-12.438 6.989-12.273-7.277.167-14.267 12.439-6.99 12.272 7.278-.167 14.267Z"/>
  <path stroke="#fff" stroke-width="3" d="m106.033 110.497.176-15.102 12.973-7.097m-12.937 7.062-12.98-7.508"/>
  <path fill="#149FA6" stroke="#fff" stroke-width="3" d="m66.561 102.113-12.438 6.989-12.273-7.278.167-14.267 12.439-6.99 12.272 7.279-.166 14.267Z"/>
  <path stroke="#fff" stroke-width="3" d="m54.086 109.664.176-15.102 12.973-7.097m-12.937 7.062-12.98-7.507"/>
</svg>
